<?xml version="1.0" ?><svg xmlns="http://www.w3.org/2000/svg" xmlns:xlink="http://www.w3.org/1999/xlink" version="1.1" viewBox="0 0 512 512" style="enable-background:new 0 0 512 512;" xml:space="preserve"><g id="_x33_0_Creativity"><g><linearGradient id="SVGID_1_" gradientUnits="userSpaceOnUse" x1="284.9663" y1="-205.8513" x2="226.5783" y2="880.1656"><stop offset="0" style="stop-color:#EAE9FE"/><stop offset="0.4236" style="stop-color:#EEEEFE"/><stop offset="0.8967" style="stop-color:#FBFBFF"/><stop offset="1" style="stop-color:#FFFFFF"/></linearGradient><path style="fill:url(#SVGID_1_);" d="M468.836,264.275c-9.502-7.393-20.977-13.763-25.396-24.961    c-6.009-15.229,3.597-31.571,9.261-46.931c17.296-46.9-4.903-102.439-44.732-132.645    c-75.982-57.623-224.302-37.425-245.028,42.219c-8.768,33.692,6.94,72.131-9.131,103.013    c-20.278,38.966-74.073,41.594-108.719,58.921C2.169,285.358-6.419,332.1,24.365,367.686    c11.304,13.068,25.769,22.07,36.136,36.348c15.001,20.659,23.415,43.504,43.486,60.545c28.263,23.996,75.517,29.946,100.538,2.586    c14.09-15.407,18.675-38.106,34.054-52.225c20.245-18.586,52.242-16.086,78.004-6.514c25.762,9.571,49.655,25.026,76.789,29.381    c42.426,6.81,87.917-18.085,105.053-57.489C515.561,340.912,502.748,290.664,468.836,264.275z"/><g><path style="fill:#EDEDED;" d="M408.364,221.348c0,40.34-15.564,76.948-40.896,103.947c-4.685,5.003-9.767,9.688-15.088,13.976     c-5.638,4.526-8.814,11.276-8.814,18.423v75.582c0,4.367-3.574,7.941-7.941,7.941H213.175c-4.367,0-7.941-3.574-7.941-7.941     v-30.239c0-4.367-3.574-7.941-7.941-7.941h-37.561c-1.906,0.079-3.574-0.238-5.241-0.873c-5.241-1.985-8.973-6.909-8.973-12.785     v-28.032c-13.658-2.7-11.514-11.832-9.053-17.152c1.191-2.382,2.383-3.97,2.383-3.97c-3.415-0.397-5.559-2.065-6.909-3.97     c-1.906-2.7-2.224-5.718-2.224-5.718c5.241-6.512,0.397-14.055,0.397-14.055l-15.802-4.447c-5.638-1.906-8.417-5.4-9.767-8.894     c-1.668-4.764-0.794-10.085,1.985-14.373l27.237-42.245c4.526-8.497,0.873-16.676-2.938-22.235     c-3.97-5.638-6.035-12.467-5.162-19.296c3.653-27.078,13.103-51.616,27.476-71.786c4.288-5.956,8.894-11.514,13.976-16.517     c3.732-3.891,7.702-7.465,11.991-10.72c11.117-8.815,23.823-15.723,37.798-20.408c10.324-3.494,21.361-5.638,33.114-6.512h0.317     c2.621-0.159,5.32-0.317,8.02-0.317h1.588c15.564,0,30.652,2.462,44.787,6.988C364.768,96.993,408.364,154.088,408.364,221.348z"/><path style="fill:#F9BB40;" d="M306.074,269.004c2.768-15.955,10.077-30.687,20.441-43.205     c11.445-13.852,17.893-31.93,16.629-51.582c-2.376-36.311-31.961-65.834-68.303-68.179     c-42.634-2.745-78.082,31.035-78.082,73.115c0,18.048,6.51,34.553,17.338,47.324c10.321,12.217,17.523,26.762,19.964,42.527     H306.074z"/><path style="fill:#386E93;" d="M291.75,305.609c-1.593,10.569-10.671,18.712-21.722,18.712c-11.05,0-20.128-8.143-21.721-18.712     H291.75z"/><path style="fill:#386E93;" d="M313.396,278.167L313.396,278.167c0,5.052-4.095,9.147-9.147,9.147h-68.438     c-5.052,0-9.147-4.095-9.147-9.147v0c0-5.052,4.095-9.147,9.147-9.147h68.438C309.301,269.019,313.396,273.115,313.396,278.167z"/><path style="fill:#386E93;" d="M308.769,296.461L308.769,296.461c0,5.052-4.095,9.147-9.147,9.147h-59.183     c-5.052,0-9.147-4.095-9.147-9.147v0c0-5.052,4.095-9.147,9.147-9.147h59.183C304.674,287.314,308.769,291.409,308.769,296.461z"/><path style="fill:#332E8E;" d="M213.176,444.967h122.449c6.445,0,11.689-5.244,11.689-11.692v-75.581     c0-6.069,2.703-11.716,7.419-15.503c5.549-4.473,10.754-9.294,15.469-14.331c27.026-28.806,41.912-66.633,41.912-106.511     c0-67.671-42.693-126.803-106.238-147.145c-30.673-9.822-63.244-9.251-90.161-0.143c-53.257,17.856-86.17,66.166-93.77,122.511     c-0.955,7.462,1.111,15.251,5.789,21.896c4.695,6.843,5.608,12.805,2.791,18.218l-27.144,42.1     c-6.88,10.607-3.62,24.349,9.912,28.918l14.246,4.006c0.774,1.797,1.777,5.4-0.745,8.533c-0.62,0.771-0.911,1.758-0.808,2.744     c0.486,4.509,3.122,9.13,7.227,11.394c-0.051,0.098-0.103,0.198-0.151,0.298c-2.556,5.522-2.844,10.525-0.837,14.465     c1.704,3.342,4.907,5.752,9.543,7.185v25.107c0,10.363,8.987,17.82,17.964,17.41h37.561c2.312,0,4.192,1.88,4.192,4.189v30.239     C201.484,439.723,206.729,444.967,213.176,444.967z M197.293,391.346l-37.715,0.002c-4.964,0.26-10.31-3.902-10.31-9.912v-28.03     c0-1.79-1.267-3.333-3.022-3.679c-2.693-0.532-6.15-1.655-7.339-3.987c-1.167-2.295-0.122-5.571,0.913-7.81     c1.008-2.017,2.021-3.389,2.026-3.396c0.808-1.074,0.977-2.495,0.449-3.73c-0.53-1.233-1.68-2.09-3.013-2.246     c-3.006-0.349-4.675-2.145-5.559-5.132c5.083-8.093-0.212-16.536-0.454-16.914c-0.496-0.771-1.257-1.335-2.141-1.584     l-15.618-4.387c-8.647-2.927-9.982-11.277-5.83-17.683l27.236-42.246c0.056-0.085,0.11-0.176,0.159-0.269     c2.942-5.525,4.785-14.541-3.181-26.155c-3.623-5.146-5.225-11.064-4.512-16.638c7.198-53.374,38.159-99.424,88.726-116.381     c27.329-9.245,58.363-8.505,85.483,0.178c60.425,19.342,101.023,75.604,101.023,140.001c0,37.966-14.163,73.97-39.883,101.382     c-4.48,4.785-9.426,9.368-14.697,13.616c-6.494,5.212-10.22,12.993-10.22,21.348v75.581c0,2.312-1.88,4.192-4.189,4.192H213.176     c-2.312,0-4.192-1.88-4.192-4.192v-30.239C208.984,396.591,203.74,391.346,197.293,391.346z"/><path style="fill:#332E8E;" d="M229.822,266.814c-4.087,2.166-6.907,6.415-6.907,11.354c0,4.87,2.744,9.066,6.738,11.26     c-1.326,2.026-2.112,4.437-2.112,7.033c0,7.112,5.786,12.898,12.898,12.898h4.88c3.109,10.859,13.196,18.711,24.71,18.711     c11.714,0,21.633-7.702,24.72-18.711h4.872c7.112,0,12.898-5.786,12.898-12.898c0-2.597-0.786-5.008-2.112-7.034     c3.994-2.194,6.739-6.389,6.739-11.259c0-4.893-2.771-9.107-6.796-11.292c2.887-13.713,9.406-27.035,19.056-38.688     c12.544-15.182,18.752-34.435,17.48-54.215c-2.512-38.381-33.381-69.196-71.804-71.677     c-45.756-2.921-82.073,33.573-82.073,76.858c0,18.218,6.472,35.885,18.223,49.742     C220.847,240.275,227.206,253.336,229.822,266.814z M251.524,194.451h-5.515c-2.998,0-5.437-2.439-5.437-5.436     c0-2.998,2.439-5.437,5.515-5.437c2.998,0,5.437,2.439,5.437,5.437V194.451z M281.038,265.255h-22.014v-63.304h22.014V265.255z      M304.248,283.563h-4.626H240.44h-4.629c-2.976,0-5.396-2.419-5.396-5.396s2.419-5.398,5.396-5.398h19.221     c0.081,0.005,0.159,0.024,0.242,0.024s0.161-0.019,0.242-0.024h29.031c0.081,0.005,0.159,0.024,0.242,0.024     s0.161-0.019,0.242-0.024h19.219c2.976,0,5.398,2.422,5.398,5.398S307.224,283.563,304.248,283.563z M270.029,320.57     c-7.415,0-14.009-4.592-16.799-11.211h33.623C284.094,316.053,277.583,320.57,270.029,320.57z M299.622,301.859h-7.871h-43.442     h-7.869c-2.976,0-5.398-2.422-5.398-5.398s2.422-5.398,5.398-5.398h59.182c2.976,0,5.398,2.422,5.398,5.398     S302.598,301.859,299.622,301.859z M274.6,109.78c34.678,2.239,62.537,30.046,64.802,64.678     c1.15,17.863-4.453,35.248-15.774,48.949c-10.405,12.566-17.507,26.973-20.649,41.848h-14.441v-63.304h5.515     c7.134,0,12.937-5.803,12.937-12.936c0-7.134-5.803-12.937-13.015-12.937c-7.134,0-12.937,5.803-12.937,12.937v5.436h-22.014     v-5.436c0-7.134-5.803-12.937-13.015-12.937c-7.134,0-12.937,5.803-12.937,12.937c0,7.133,5.803,12.936,13.015,12.936h5.437     v63.304h-14.312c-2.876-14.692-9.836-28.875-20.254-41.204c-10.608-12.51-16.448-28.456-16.448-44.899     C200.51,139.035,234.238,107.176,274.6,109.78z M288.538,194.451v-5.436c0-2.998,2.439-5.437,5.515-5.437     c2.998,0,5.437,2.439,5.437,5.437c0,2.997-2.439,5.436-5.515,5.436H288.538z"/></g></g></g><g id="Layer_1"/></svg>