<?xml version="1.0" ?><svg xmlns="http://www.w3.org/2000/svg" xmlns:xlink="http://www.w3.org/1999/xlink" version="1.1" viewBox="0 0 512 512" style="enable-background:new 0 0 512 512;" xml:space="preserve"><g id="_x32_9_Document"><g><linearGradient id="SVGID_1_" gradientUnits="userSpaceOnUse" x1="284.9663" y1="-205.8513" x2="226.5783" y2="880.1656"><stop offset="0" style="stop-color:#EAE9FE"/><stop offset="0.4236" style="stop-color:#EEEEFE"/><stop offset="0.8967" style="stop-color:#FBFBFF"/><stop offset="1" style="stop-color:#FFFFFF"/></linearGradient><path style="fill:url(#SVGID_1_);" d="M468.836,264.275c-9.502-7.393-20.977-13.763-25.396-24.961    c-6.009-15.229,3.597-31.571,9.261-46.931c17.296-46.9-4.903-102.439-44.732-132.645    c-75.982-57.623-224.302-37.425-245.028,42.219c-8.768,33.692,6.94,72.131-9.131,103.013    c-20.278,38.966-74.073,41.594-108.719,58.921C2.169,285.358-6.419,332.1,24.365,367.686    c11.304,13.068,25.769,22.07,36.136,36.348c15.001,20.659,23.415,43.504,43.486,60.545c28.263,23.996,75.517,29.946,100.538,2.586    c14.09-15.407,18.675-38.106,34.054-52.225c20.245-18.586,52.242-16.086,78.004-6.514c25.762,9.571,49.655,25.026,76.789,29.381    c42.426,6.81,87.917-18.085,105.053-57.489C515.561,340.912,502.748,290.664,468.836,264.275z"/><g><path style="fill:#DBDBDB;" d="M143.256,119.775v43.274H86.272c-8.548,0-15.478-6.93-15.478-15.478v-27.796     c0-20.01,16.221-36.231,36.231-36.231h0C127.035,83.544,143.256,99.765,143.256,119.775z"/><path style="fill:#EDEDED;" d="M347.439,423.862h66.63V119.746c0-9.983-4.025-19.038-10.602-25.616     c-6.501-6.578-15.633-10.602-25.616-10.602H107.012c9.983,0,19.115,4.024,25.616,10.602c6.578,6.578,10.602,15.633,10.602,25.616     v272.512c0,9.983,4.024,19.038,10.602,25.616c6.5,6.578,15.632,10.602,25.616,10.602h167.991V423.862z"/><path style="fill:#2769FD;" d="M349.042,168.355h-26.151c0-24.474-19.755-44.229-44.229-44.229V97.975     C317.548,97.975,349.042,129.471,349.042,168.355z"/><path style="fill:#F9BB40;" d="M208.283,168.355h26.151c0-24.474,19.755-44.229,44.229-44.229V97.975     C239.777,97.975,208.283,129.471,208.283,168.355z"/><path style="fill:#FF5859;" d="M349.042,168.355h-26.151c0,24.474-19.755,44.229-44.229,44.229v26.151     C317.548,238.735,349.042,207.24,349.042,168.355z"/><path style="fill:#5EDB6B;" d="M208.283,168.355h26.151c0,24.474,19.755,44.229,44.229,44.229v26.151     C239.777,238.735,208.283,207.24,208.283,168.355z"/><path style="fill:#DBDBDB;" d="M438.221,392.258c1.688,0,3.121,1.436,2.977,3.117c-1.586,18.513-17.168,33.101-36.085,33.101     H179.448c19.031,0,34.687-14.765,36.112-33.438c0.118-1.55,1.321-2.78,2.876-2.78L438.221,392.258z"/><path style="fill:#332E8E;" d="M171.249,270.042h44.731c2.07,0,3.75-1.68,3.75-3.75s-1.68-3.75-3.75-3.75h-44.731     c-2.07,0-3.75,1.68-3.75,3.75S169.179,270.042,171.249,270.042z"/><path style="fill:#332E8E;" d="M243.542,266.292c0,2.07,1.68,3.75,3.75,3.75H387.47c2.07,0,3.75-1.68,3.75-3.75     s-1.68-3.75-3.75-3.75H247.292C245.222,262.542,243.542,264.222,243.542,266.292z"/><path style="fill:#332E8E;" d="M169.855,302.845h98.308c2.07,0,3.75-1.68,3.75-3.75s-1.68-3.75-3.75-3.75h-98.308     c-2.07,0-3.75,1.68-3.75,3.75S167.785,302.845,169.855,302.845z"/><path style="fill:#332E8E;" d="M172.927,328.148c-2.07,0-3.75,1.68-3.75,3.75s1.68,3.75,3.75,3.75h127.456     c2.07,0,3.75-1.68,3.75-3.75s-1.68-3.75-3.75-3.75H172.927z"/><path style="fill:#332E8E;" d="M387.47,295.345h-98.872c-2.07,0-3.75,1.68-3.75,3.75s1.68,3.75,3.75,3.75h98.872     c2.07,0,3.75-1.68,3.75-3.75S389.54,295.345,387.47,295.345z"/><path style="fill:#332E8E;" d="M387.47,328.148h-69.741c-2.07,0-3.75,1.68-3.75,3.75s1.68,3.75,3.75,3.75h69.741     c2.07,0,3.75-1.68,3.75-3.75S389.54,328.148,387.47,328.148z"/><path style="fill:#332E8E;" d="M306.24,364.703c0-2.07-1.68-3.75-3.75-3.75H169.855c-2.07,0-3.75,1.68-3.75,3.75     s1.68,3.75,3.75,3.75H302.49C304.56,368.453,306.24,366.773,306.24,364.703z"/><path style="fill:#332E8E;" d="M377.851,79.779c-288.43,0.03-270.605-0.054-271.364,0.053     c-22.029,0.354-39.445,19.772-39.445,41.647v26.127c0,10.602,8.625,19.227,19.229,19.227h53.208v225.426     c0,22.311,18.089,39.966,39.968,39.966c23.072,0,196.588,0,225.666,0c20.574,0,38.064-16.045,39.819-36.531     c0.156-1.809-0.471-3.625-1.719-4.983c-1.284-1.399-3.103-2.202-4.993-2.202h-20.403V119.746     C417.819,97.481,399.782,79.779,377.851,79.779z M86.271,159.333c-6.467,0-11.729-5.261-11.729-11.727v-26.127     c0-17.872,14.392-34.181,32.523-34.198c17.636,0.029,32.413,14.244,32.413,32.464v39.587H86.271z M146.979,392.259     c0-56.618,0-214.637,0-272.513c0-13.249-6.594-25.263-16.624-32.467h247.495c17.837,0,32.468,14.399,32.468,32.467v268.763     H218.437c-3.503,0-6.345,2.686-6.616,6.243c-1.282,16.807-15.503,29.973-32.373,29.973     C161.651,424.725,146.979,410.36,146.979,392.259z M405.114,424.725c-57.74,0-145.715,0-202.454,0     c9.141-6.56,15.471-16.875,16.582-28.716h218.123C435.488,412.188,421.506,424.725,405.114,424.725z"/><path style="fill:#332E8E;" d="M278.662,242.486c40.876,0,74.131-33.254,74.131-74.131c0-40.875-33.254-74.13-74.131-74.13     c-40.874,0-74.128,33.254-74.128,74.13C204.533,209.232,237.788,242.486,278.662,242.486z M278.662,127.877     c22.319,0,40.479,18.159,40.479,40.479s-18.159,40.479-40.479,40.479s-40.479-18.159-40.479-40.479     S256.342,127.877,278.662,127.877z M282.412,234.881V216.19c23.474-1.824,42.261-20.61,44.084-44.084h18.691     C343.308,205.867,316.174,233.001,282.412,234.881z M345.187,164.605h-18.691c-1.824-23.474-20.61-42.261-44.084-44.083v-18.693     C316.174,103.712,343.308,130.844,345.187,164.605z M274.912,101.829v18.693c-23.474,1.823-42.261,20.609-44.084,44.083h-18.689     C214.018,130.844,241.152,103.712,274.912,101.829z M230.827,172.105c1.824,23.474,20.61,42.261,44.084,44.084v18.691     c-33.76-1.88-60.894-29.014-62.773-62.776H230.827z"/></g></g></g><g id="Layer_1"/></svg>