<?xml version="1.0" ?><svg xmlns="http://www.w3.org/2000/svg" xmlns:xlink="http://www.w3.org/1999/xlink" version="1.1" viewBox="0 0 512 512" style="enable-background:new 0 0 512 512;" xml:space="preserve"><g id="_x31_8_Presentation"><g><linearGradient id="SVGID_1_" gradientUnits="userSpaceOnUse" x1="284.9663" y1="-205.8513" x2="226.5783" y2="880.1656"><stop offset="0" style="stop-color:#EAE9FE"/><stop offset="0.4236" style="stop-color:#EEEEFE"/><stop offset="0.8967" style="stop-color:#FBFBFF"/><stop offset="1" style="stop-color:#FFFFFF"/></linearGradient><path style="fill:url(#SVGID_1_);" d="M468.836,264.275c-9.502-7.393-20.977-13.763-25.396-24.961    c-6.009-15.229,3.597-31.571,9.261-46.931c17.296-46.9-4.903-102.439-44.732-132.645    c-75.982-57.623-224.302-37.425-245.028,42.219c-8.768,33.692,6.94,72.131-9.131,103.013    c-20.278,38.966-74.073,41.594-108.719,58.921C2.169,285.358-6.419,332.1,24.365,367.686    c11.304,13.068,25.769,22.07,36.136,36.348c15.001,20.659,23.415,43.504,43.486,60.545c28.263,23.996,75.517,29.946,100.538,2.586    c14.09-15.407,18.675-38.106,34.054-52.225c20.245-18.586,52.242-16.086,78.004-6.514c25.762,9.571,49.655,25.026,76.789,29.381    c42.426,6.81,87.917-18.085,105.053-57.489C515.561,340.912,502.748,290.664,468.836,264.275z"/><g><path style="fill:#F9BB40;" d="M271.603,99.981h-31.208V84.354c0-8.618,6.986-15.604,15.604-15.604h0     c8.618,0,15.604,6.986,15.604,15.604V99.981z"/><path style="fill:#F9BB40;" d="M240.394,333.392l31.209-0.001v75.577c0,8.618-6.986,15.604-15.604,15.605h0     c-8.618,0-15.604-6.986-15.604-15.604V333.392z"/><path style="fill:#F9BB40;" d="M360.064,443.249c-7.093,0-13.509-4.872-15.185-12.08l-21.829-94.017     c-1.951-8.393,3.276-16.777,11.673-18.728c8.381-1.947,16.77,3.272,18.728,11.673l21.829,94.017     c1.951,8.393-3.276,16.777-11.673,18.728C362.418,443.116,361.237,443.249,360.064,443.249z"/><path style="fill:#F9BB40;" d="M148.037,443.249c-1.173,0-2.354-0.133-3.543-0.408c-8.396-1.951-13.623-10.335-11.673-18.728     l21.829-94.017c1.951-8.4,10.354-13.619,18.728-11.673c8.396,1.951,13.623,10.335,11.673,18.728l-21.829,94.017     C161.546,438.376,155.13,443.249,148.037,443.249z"/><path style="fill:#386E93;" d="M421.533,115.584v218.042c0,8.618-6.986,15.604-15.604,15.604H106.072     c-8.618,0-15.604-6.986-15.604-15.604V115.584c0-8.618,6.986-15.604,15.604-15.604h299.857     C414.547,99.979,421.533,106.966,421.533,115.584z"/><rect x="121.672" y="132.678" style="fill:#EDEDED;" width="268.653" height="186.838"/><path style="fill:#FF5859;" d="M205.973,264.972v29.126c0,3.641-2.951,6.592-6.592,6.592h-13.447     c-3.641,0-6.592-2.951-6.592-6.592v-29.126c0-3.677,2.981-6.658,6.658-6.658h13.315     C202.992,258.314,205.973,261.295,205.973,264.972z"/><path style="fill:#F9BB40;" d="M250.201,245.299v48.799c0,3.641-2.951,6.592-6.592,6.592h-13.447     c-3.641,0-6.592-2.951-6.592-6.592v-48.799c0-3.677,2.981-6.658,6.658-6.658h13.315     C247.221,238.641,250.201,241.622,250.201,245.299z"/><path style="fill:#2769FD;" d="M293.964,225.523v68.574c0,3.641-2.951,6.592-6.592,6.592h-13.447     c-3.641,0-6.592-2.951-6.592-6.592v-68.574c0-3.677,2.981-6.658,6.658-6.658h13.315     C290.984,218.866,293.964,221.846,293.964,225.523z"/><path style="fill:#5EDB6B;" d="M337.727,191.831v102.266c0,3.641-2.951,6.592-6.592,6.592h-13.447     c-3.641,0-6.592-2.951-6.592-6.592V191.831c0-3.677,2.981-6.658,6.658-6.658h13.315     C334.747,185.173,337.727,188.154,337.727,191.831z"/><path style="fill:#F9BB40;" d="M330.283,147.826l-6.563,20.973c-0.937,3.047-5.097,3.633-7.03,0.998l-15.643-21.505     c-1.934-2.635,0-6.325,3.223-6.268l22.206,0.526C329.11,142.61,331.044,145.245,330.283,147.826z"/><path style="fill:#332E8E;" d="M256,64.999c-10.674,0-19.355,8.683-19.355,19.354V96.23H106.071     c-10.671,0-19.353,8.683-19.353,19.354v218.042c0,10.671,8.682,19.354,19.353,19.354h39.417l-16.318,70.284     c-2.42,10.418,4.053,20.808,14.48,23.23c10.382,2.399,20.772-3.938,23.225-14.478l18.351-79.037h51.42v55.99     c0,10.671,8.682,19.353,19.353,19.353c10.674,0,19.355-8.683,19.355-19.354V352.98h47.521l18.353,79.037     c2.452,10.559,12.856,16.874,23.23,14.476c10.377-2.411,16.905-12.77,14.475-23.229l-16.318-70.284h43.315     c10.671,0,19.353-8.683,19.353-19.354V115.584c0-10.671-8.682-19.354-19.353-19.354H275.353V84.353     C275.353,73.682,266.671,64.999,256,64.999z M244.145,84.353c0-6.537,5.317-11.854,11.855-11.854     c6.536,0,11.853,5.317,11.853,11.854V96.23h-23.708V84.353z M159.569,430.319c-1.496,6.43-7.83,10.346-14.226,8.87     c-6.381-1.484-10.351-7.841-8.87-14.227l16.713-71.981h24.34L159.569,430.319z M267.853,408.969     c0,6.537-5.317,11.854-11.855,11.854c-6.536,0-11.853-5.317-11.853-11.853v-55.99h23.708V408.969z M371.627,424.963     c1.475,6.354-2.462,12.736-8.865,14.225c-6.416,1.481-12.741-2.449-14.231-8.867l-17.958-77.34h24.341L371.627,424.963z      M417.782,115.584v218.042c0,6.537-5.317,11.854-11.853,11.854H106.071c-6.536,0-11.853-5.317-11.853-11.854V115.584     c0-6.537,5.317-11.854,11.853-11.854c29.402,0,269.194,0,299.858,0C412.465,103.73,417.782,109.047,417.782,115.584z"/><path style="fill:#332E8E;" d="M121.671,127.436c-2.07,0-3.75,1.678-3.75,3.75v186.838c0,2.072,1.68,3.75,3.75,3.75h268.655     c2.07,0,3.75-1.678,3.75-3.75V131.186c0-2.072-1.68-3.75-3.75-3.75H121.671z M386.576,314.274H125.421V134.936h261.155V314.274z"/><path style="fill:#332E8E;" d="M199.315,254.563H186c-5.74,0-10.408,4.669-10.408,10.408v29.126     c0,5.702,4.639,10.342,10.342,10.342h13.447c5.703,0,10.342-4.64,10.342-10.342v-29.126     C209.723,259.233,205.055,254.563,199.315,254.563z M202.223,294.097c0,1.567-1.274,2.842-2.842,2.842h-13.447     c-1.567,0-2.842-1.274-2.842-2.842v-29.126c0-1.603,1.304-2.908,2.908-2.908h13.315c1.604,0,2.908,1.305,2.908,2.908V294.097z"/><path style="fill:#332E8E;" d="M243.544,234.892h-13.315c-5.74,0-10.408,4.668-10.408,10.406v48.799     c0,5.702,4.639,10.342,10.342,10.342h13.447c5.703,0,10.342-4.64,10.342-10.342v-48.799     C253.952,239.56,249.284,234.892,243.544,234.892z M246.452,294.097c0,1.567-1.274,2.842-2.842,2.842h-13.447     c-1.567,0-2.842-1.274-2.842-2.842v-48.799c0-1.603,1.304-2.906,2.908-2.906h13.315c1.604,0,2.908,1.304,2.908,2.906V294.097z"/><path style="fill:#332E8E;" d="M287.306,215.115h-13.315c-5.74,0-10.408,4.669-10.408,10.408v68.574     c0,5.702,4.639,10.342,10.342,10.342h13.447c5.703,0,10.342-4.64,10.342-10.342v-68.574     C297.714,219.784,293.046,215.115,287.306,215.115z M290.214,294.097c0,1.567-1.274,2.842-2.842,2.842h-13.447     c-1.567,0-2.842-1.274-2.842-2.842v-68.574c0-1.603,1.304-2.908,2.908-2.908h13.315c1.604,0,2.908,1.305,2.908,2.908V294.097z"/><path style="fill:#332E8E;" d="M317.755,181.424c-5.74,0-10.408,4.669-10.408,10.408v102.266c0,5.702,4.639,10.342,10.342,10.342     h13.445c5.703,0,10.342-4.64,10.342-10.342V191.831c0-5.739-4.668-10.408-10.405-10.408H317.755z M333.976,191.831v102.266     c0,1.567-1.274,2.842-2.842,2.842h-13.445c-1.567,0-2.842-1.274-2.842-2.842V191.831c0-1.603,1.304-2.908,2.908-2.908h13.315     C332.672,188.924,333.976,190.229,333.976,191.831z"/><path style="fill:#332E8E;" d="M303.482,158.016l-112.516,74.585c-1.726,1.145-2.197,3.472-1.052,5.198     c0.72,1.089,1.914,1.678,3.127,1.678c0.713,0,1.433-0.201,2.07-0.624l112.788-74.765l5.767,7.928     c1.501,2.042,3.838,3.204,6.313,3.204c0.442,0,0.889-0.038,1.333-0.112c2.856-0.483,5.151-2.479,5.986-5.192l6.563-20.972     c0.005-0.018,0.012-0.038,0.017-0.057c0.698-2.361,0.259-4.862-1.204-6.865c-1.455-1.992-3.684-3.167-6.113-3.221l-22.227-0.527     c-2.891,0.059-5.588,1.539-6.941,4.149c-1.353,2.615-1.113,5.714,0.62,8.075L303.482,158.016z M304.181,145.773l22.207,0.526     c0.107,0.002,0.19,0.093,0.229,0.145c0.073,0.101,0.098,0.205,0.071,0.308l-6.536,20.931c0,0.004-0.266,0.132-0.432-0.093     l-15.642-21.504C304.076,146.083,304.184,145.778,304.181,145.773z"/><path style="fill:#332E8E;" d="M138.783,163.388h92.766c2.07,0,3.75-1.678,3.75-3.75s-1.68-3.75-3.75-3.75h-92.766     c-2.07,0-3.75,1.678-3.75,3.75S136.713,163.388,138.783,163.388z"/><path style="fill:#332E8E;" d="M138.783,187.915h67.19c2.07,0,3.75-1.678,3.75-3.75s-1.68-3.75-3.75-3.75h-67.19     c-2.07,0-3.75,1.678-3.75,3.75S136.713,187.915,138.783,187.915z"/></g></g></g><g id="Layer_1"/></svg>